<?xml version="1.0" encoding="utf-8"?>
<!-- Generator: Adobe Illustrator 21.0.2, SVG Export Plug-In . SVG Version: 6.00 Build 0)  -->
<svg version="1.1" id="Layer_1" xmlns="http://www.w3.org/2000/svg" xmlns:xlink="http://www.w3.org/1999/xlink" x="0px" y="0px"
	 viewBox="0 0 536 305" style="enable-background:new 0 0 536 305;" xml:space="preserve">
<style type="text/css">
	.st0{display:none;}
	.st1{fill:#2B8292;}
	.st2{fill:none;stroke:#FFFFFF;stroke-width:4;stroke-linecap:round;stroke-linejoin:round;stroke-miterlimit:10;}
	.st3{fill:none;stroke:#FFFFFF;stroke-width:4;stroke-linejoin:round;stroke-miterlimit:10;}
	.st4{fill:#095568;}
	.st5{font-family:'Avenir-Medium';}
	.st6{font-size:68.2537px;}
</style>
<g id="Layer_2" class="st0">
</g>
<g id="Layer_3">
</g>
<g id="Layer_1_1_">
	<g>
		<path class="st1" d="M276.5,9c50.3,0,91,40.7,91,91s-40.7,91-91,91s-91-40.7-91-91S226.2,9,276.5,9z"/>
		<path class="st2" d="M309.8,103.5c1.5-2.9,4.5-8.5,8.6-7.2c1.8,0.6,3,3.6,4.7,3.8c1.6,0.2,4.8-2.9,6.4-3.5
			c14.1-5.5,9.4,17.5,7.9,24.1c-4.3,18.5-17.9,33.9-37.3,36.4c-9.4,1.2-18.7-0.6-27.8-2.9c-7.1-1.8-13.9-4.7-21.1-6.3
			c-4.5-1-9.2-1.8-13.9-1.6c-2,0.1-4,0.3-5.8,0.9c-1.8,0.6-3.4,2-5.3,2c-6.8,0.2-9.7-10.1-11-15.1c-0.9-3.6-1.4-7.3-1.8-11
			c-0.2-1.9-0.8-5-0.1-6.8c2.5-6.8,15.1-3.1,19.8-4.4c5.3-1.5,8.5-6,14-7.2c11-2.4,19.8-0.3,27.9,7.5c1.3,1.3,3.3,4.7,4.9,5.5
			c1.5,0.7,5,0,6.6,0c6,0,11.9,0,17.9,0c4.4,0,12,0.2,13.9,5.2c2.7,7.3-6.1,12-11.7,13.4c-6.8,1.7-14,1.6-20.9,1.1
			c-1.4-0.1-2.7-0.2-4.1-0.4"/>
		<g>
			<path class="st3" d="M280.1,82.5c6.8-1.2,12.3-6.2,12.8-13.3c0.8-13.4-12.7-22.3-14.7-35.2c-0.9,5.7-3.7,11.7-7,16.4
				c-4.3,6.1-8.6,12.8-7.2,20.6C265.2,78.3,272.8,83.3,280.1,82.5z"/>
		</g>
	</g>
	<text transform="matrix(1 0 0 1 5.9998 294.584)" class="st4 st5 st6">MoreCleanWater</text>
</g>
</svg>
