<?xml version="1.0" encoding="utf-8"?>
<!-- Generator: Adobe Illustrator 21.0.2, SVG Export Plug-In . SVG Version: 6.00 Build 0)  -->
<svg version="1.1" id="Layer_1" xmlns="http://www.w3.org/2000/svg" xmlns:xlink="http://www.w3.org/1999/xlink" x="0px" y="0px"
	 viewBox="0 0 694.6 127.2" style="enable-background:new 0 0 694.6 127.2;" xml:space="preserve">
<style type="text/css">
	.st0{fill-rule:evenodd;clip-rule:evenodd;fill:#3F70AC;}
	
		.st1{fill-rule:evenodd;clip-rule:evenodd;fill:none;stroke:#FFFFFF;stroke-width:4;stroke-linecap:round;stroke-linejoin:round;stroke-miterlimit:10;}
	.st2{fill:none;stroke:#FFFFFF;stroke-width:4;stroke-linejoin:round;stroke-miterlimit:10;}
	.st3{fill:#3F70AC;}
	.st4{font-family:'Avenir-Medium';}
	.st5{font-size:68.2537px;}
	.st6{letter-spacing:1;}
</style>
<g>
	<path class="st0" d="M63.6,0c35.1,0,63.6,28.5,63.6,63.6s-28.5,63.6-63.6,63.6S0,98.7,0,63.6S28.5,0,63.6,0z"/>
	<path class="st1" d="M86.8,66c1.1-2,3.2-6,6-5c1.2,0.4,2.1,2.5,3.3,2.7c1.1,0.1,3.4-2,4.5-2.5c9.9-3.8,6.6,12.2,5.5,16.8
		c-3,12.9-12.5,23.7-26,25.4c-6.6,0.8-13.1-0.4-19.4-2c-5-1.3-9.7-3.3-14.7-4.4c-3.2-0.7-6.5-1.3-9.7-1.1c-1.4,0-2.8,0.2-4.1,0.6
		c-1.3,0.4-2.4,1.4-3.7,1.4c-4.8,0.1-6.8-7.1-7.7-10.6c-0.6-2.5-1-5.1-1.2-7.7c-0.1-1.3-0.6-3.5-0.1-4.8c1.8-4.7,10.6-2.1,13.8-3.1
		c3.7-1.1,5.9-4.2,9.7-5.1c7.7-1.7,13.9-0.2,19.5,5.2c0.9,0.9,2.3,3.3,3.4,3.9c1.1,0.5,3.5,0,4.6,0c4.2,0,8.3,0,12.5,0
		c3.1,0,8.4,0.1,9.7,3.6c1.9,5.1-4.3,8.4-8.1,9.3c-4.7,1.2-9.8,1.1-14.6,0.8c-1-0.1-1.9-0.2-2.9-0.3"/>
	<g>
		<path class="st2" d="M66.1,51.4c4.7-0.8,8.6-4.4,8.9-9.3c0.6-9.3-8.9-15.6-10.3-24.6c-0.7,4-2.6,8.2-4.9,11.4c-3,4.3-6,8.9-5,14.4
			C55.7,48.5,61,52,66.1,51.4z"/>
	</g>
</g>
<text transform="matrix(1 0 0 1 149.0636 89.1695)" class="st3 st4 st5 st6">MoreCleanWater</text>
</svg>
