<?xml version="1.0" encoding="utf-8"?>
<!-- Generator: Adobe Illustrator 21.0.2, SVG Export Plug-In . SVG Version: 6.00 Build 0)  -->
<svg version="1.1" id="Layer_1" xmlns="http://www.w3.org/2000/svg" xmlns:xlink="http://www.w3.org/1999/xlink" x="0px" y="0px"
	 viewBox="0 0 1440 320" style="enable-background:new 0 0 1440 320;" xml:space="preserve">
<style type="text/css">
	.st0{fill:#0099FF;}
</style>
<path class="st0" d="M0,192c0,0,35-12.5,82-38c74-36.5,137-65.5,232-111c115-45.5,222.2,2.3,329,64c93,53.7,138.3,80.2,221,116
	c119.9,51.9,192,53,288,42.7c96-10.7,192-42.7,240-58.7l48-16v128h-48c-48,0-144,0-240,0s-192,0-288,0s-192,0-288,0s-192,0-288,0
	s-192,0-240,0H0V192z"/>
</svg>
