<?xml version="1.0" encoding="utf-8"?>
<!-- Generator: Adobe Illustrator 21.0.2, SVG Export Plug-In . SVG Version: 6.00 Build 0)  -->
<svg version="1.1" id="Layer_1" xmlns="http://www.w3.org/2000/svg" xmlns:xlink="http://www.w3.org/1999/xlink" x="0px" y="0px"
	 viewBox="0 0 1440 320" style="enable-background:new 0 0 1440 320;" xml:space="preserve">
<style type="text/css">
	.st0{fill:#0099FF;}
</style>
<path class="st0" d="M0,128l48-5.3c48-5.7,144-15.7,240,16c96,32.3,177.6,93.7,273.6,99.4c96,5.3,197.8-98.3,291.9-61.1
	c105,41.5,113,48,171.5,51c88.3-0.3,129-10.2,258.3-60.3c60-25.3,156.7-40.2,156.7-40.2V320h-48c-48,0-144,0-240,0s-192,0-288,0
	s-192,0-288,0s-192,0-288,0s-192,0-240,0H0V128z"/>
<path class="st0" d="M1440,127.5"/>
<path class="st0" d="M1440,127.5"/>
<path class="st0" d="M1495.3,81"/>
</svg>
