<?xml version="1.0" encoding="utf-8"?>
<!-- Generator: Adobe Illustrator 21.0.2, SVG Export Plug-In . SVG Version: 6.00 Build 0)  -->
<svg version="1.1" id="Layer_1" xmlns="http://www.w3.org/2000/svg" xmlns:xlink="http://www.w3.org/1999/xlink" x="0px" y="0px"
	 viewBox="0 0 1664 260.8" style="enable-background:new 0 0 1664 260.8;" xml:space="preserve">
<style type="text/css">
	.st0{fill:#0099FF;}
</style>
<path class="st0" d="M0,100.8l48,16c48,16,144,48,240,48s192-32,288-58.7c96-26.3,192-48.3,288-37.3
	c137.5,15.2,159.5,64.7,278.9,53.1C1265,105.5,1252,42,1362,8.3c24-5.8,105.7-16,156.1,15.1c5.2,2.7,12.7,7.4,17.4,10.9
	c54.9,42.8,128.5,66.5,128.5,66.5v160h-272c-48,0-144,0-240,0s-192,0-288,0s-192,0-288,0s-192,0-288,0s-192,0-240,0H0V100.8z"/>
</svg>
